<svg width="25" height="30" viewBox="0 0 25 30" fill="none" xmlns="http://www.w3.org/2000/svg">
<path d="M4.25 10V8.625C4.25 4.06865 7.94365 0.375 12.5 0.375C17.0563 0.375 20.75 4.06865 20.75 8.625V10H23.5C24.2594 10 24.875 10.6156 24.875 11.375V27.875C24.875 28.6344 24.2594 29.25 23.5 29.25H1.5C0.740615 29.25 0.125 28.6344 0.125 27.875V11.375C0.125 10.6156 0.740615 10 1.5 10H4.25ZM22.125 12.75H2.875V26.5H22.125V12.75ZM11.125 20.632C10.303 20.1566 9.75 19.2679 9.75 18.25C9.75 16.7312 10.9812 15.5 12.5 15.5C14.0188 15.5 15.25 16.7312 15.25 18.25C15.25 19.2679 14.697 20.1566 13.875 20.632V23.75H11.125V20.632ZM7 10H18V8.625C18 5.58743 15.5375 3.125 12.5 3.125C9.46243 3.125 7 5.58743 7 8.625V10Z" fill="#456DBB"/>
</svg>
