<svg width="36" height="36" viewBox="0 0 36 36" fill="none" xmlns="http://www.w3.org/2000/svg">
<path d="M36 18C36 27.941 27.941 36 18 36C8.06 36 0 27.941 0 18C0 8.06 8.06 0 18 0C27.941 0 36 8.06 36 18Z" fill="#FFCC4D"/>
<path d="M17.312 17.6121C17.136 17.4691 16.885 17.4651 16.702 17.5981C16.69 17.6071 15.442 18.5001 13 18.5001C10.559 18.5001 9.31 17.6071 9.3 17.6001C9.117 17.4631 8.865 17.4671 8.689 17.6091C8.511 17.7511 8.451 17.9951 8.543 18.2031C8.603 18.3381 10.043 21.5001 13 21.5001C15.958 21.5001 17.397 18.3381 17.457 18.2031C17.549 17.9961 17.489 17.7541 17.312 17.6121ZM27.312 17.6121C27.136 17.4691 26.886 17.4641 26.702 17.5981C26.69 17.6071 25.441 18.5001 23 18.5001C20.56 18.5001 19.31 17.6071 19.3 17.6001C19.117 17.4631 18.866 17.4671 18.689 17.6091C18.511 17.7511 18.451 17.9951 18.543 18.2031C18.603 18.3381 20.043 21.5001 23 21.5001C25.958 21.5001 27.397 18.3381 27.457 18.2031C27.549 17.9961 27.489 17.7541 27.312 17.6121ZM22 28.0001H14C13.448 28.0001 13 27.5531 13 27.0001C13 26.4471 13.448 26.0001 14 26.0001H22C22.553 26.0001 23 26.4471 23 27.0001C23 27.5531 22.553 28.0001 22 28.0001ZM6 14.0001C5.448 14.0001 5 13.5521 5 13.0001C5 12.4491 5.445 12.0021 5.996 12.0001C6.152 11.9981 9.565 11.9141 12.201 8.40008C12.532 7.96008 13.158 7.86808 13.601 8.20008C14.043 8.53108 14.132 9.15808 13.801 9.60008C10.538 13.9501 6.184 14.0001 6 14.0001ZM30 14.0001C29.816 14.0001 25.463 13.9501 22.2 9.60008C21.868 9.15808 21.958 8.53108 22.4 8.20008C22.841 7.86708 23.467 7.95808 23.799 8.40008C26.44 11.9211 29.86 11.9991 30.005 12.0001C30.555 12.0061 30.999 12.4561 30.996 13.0051C30.994 13.5561 30.55 14.0001 30 14.0001Z" fill="#664500"/>
</svg>
