<svg width="36" height="36" viewBox="0 0 36 36" fill="none" xmlns="http://www.w3.org/2000/svg">
<path d="M36 18C36 27.941 27.941 36 18 36C8.06 36 0 27.941 0 18C0 8.06 8.06 0 18 0C27.941 0 36 8.06 36 18Z" fill="#FFCC4D"/>
<path d="M18 22C14.377 22 11.973 21.578 9 21C8.321 20.869 7 21 7 23C7 27 11.595 32 18 32C24.404 32 29 27 29 23C29 21 27.679 20.868 27 21C24.027 21.578 21.623 22 18 22Z" fill="#664500"/>
<path d="M9 23C9 23 12 24 18 24C24 24 27 23 27 23C27 23 25 27 18 27C11 27 9 23 9 23Z" fill="white"/>
<path d="M6.00138 20C5.69738 20 5.39738 19.862 5.20038 19.6C4.86838 19.159 4.95838 18.532 5.40038 18.201C5.54338 18.094 8.35138 16.018 12.2564 15.268C9.78138 14.027 7.03438 14 6.99938 14C6.44738 13.998 6.00038 13.55 6.00138 12.998C6.00138 12.447 6.44838 12 7.00038 12C7.22138 12 12.4524 12.038 15.7074 15.293C15.9934 15.579 16.0794 16.009 15.9244 16.383C15.7694 16.757 15.4044 17 15.0004 17C10.3874 17 6.63738 19.772 6.60038 19.8C6.42038 19.935 6.20938 20 6.00138 20ZM29.9994 19.999C29.7914 19.999 29.5814 19.935 29.4014 19.801C29.3634 19.772 25.5904 17 21.0004 17C20.5964 17 20.2304 16.757 20.0764 16.383C19.9214 16.009 20.0074 15.579 20.2934 15.293C23.5494 12.038 28.7794 12 29.0004 12C29.5524 12 29.9984 12.447 29.9994 12.998C30.0004 13.55 29.5534 13.998 29.0024 14C28.9664 14 26.2194 14.027 23.7444 15.268C27.6494 16.018 30.4574 18.093 30.5994 18.201C31.0404 18.532 31.1304 19.157 30.8004 19.599C30.6044 19.86 30.3044 19.999 29.9994 19.999Z" fill="#664500"/>
</svg>
