<svg width="36" height="36" viewBox="0 0 36 36" fill="none" xmlns="http://www.w3.org/2000/svg">
<path d="M36 18C36 27.941 27.941 36 18 36C8.06 36 0 27.941 0 18C0 8.06 8.06 0 18 0C27.941 0 36 8.06 36 18Z" fill="#FFCC4D"/>
<path d="M29 27C31.7614 27 34 24.7614 34 22C34 19.2386 31.7614 17 29 17C26.2386 17 24 19.2386 24 22C24 24.7614 26.2386 27 29 27Z" fill="#FF7892"/>
<path d="M7 27C9.76142 27 12 24.7614 12 22C12 19.2386 9.76142 17 7 17C4.23858 17 2 19.2386 2 22C2 24.7614 4.23858 27 7 27Z" fill="#FF7892"/>
<path d="M29.0002 13.9999C28.7442 13.9999 28.4882 13.9019 28.2932 13.7069C25.7162 11.1319 21.2382 11.9709 21.1943 11.9809C20.6462 12.0899 20.1273 11.7339 20.0203 11.1939C19.9132 10.6529 20.2622 10.1279 20.8032 10.0199C21.0302 9.97393 26.3662 8.95493 29.7062 12.2929C30.0972 12.6839 30.0972 13.3159 29.7062 13.7069C29.5122 13.9019 29.2563 13.9999 29.0002 13.9999ZM7.00025 13.9999C6.74425 13.9999 6.48825 13.9019 6.29325 13.7069C5.90225 13.3159 5.90225 12.6839 6.29325 12.2929C9.63325 8.95193 14.9712 9.97493 15.1962 10.0199C15.7382 10.1279 16.0892 10.6549 15.9802 11.1969C15.8722 11.7369 15.3472 12.0889 14.8053 11.9819C14.7362 11.9669 10.2762 11.1389 7.70725 13.7079C7.51225 13.9019 7.25625 13.9999 7.00025 13.9999ZM26.0002 18.9999C25.7442 18.9999 25.4882 18.9019 25.2932 18.7069C23.9892 17.4019 21.2032 17.7329 20.2412 17.9709C19.7012 18.1029 19.1643 17.7759 19.0303 17.2409C18.8973 16.7049 19.2222 16.1639 19.7582 16.0299C19.9442 15.9839 24.3333 14.9189 26.7073 17.2929C27.0983 17.6839 27.0983 18.3159 26.7073 18.7069C26.5123 18.9019 26.2563 18.9999 26.0002 18.9999ZM10.0002 18.9999C9.74425 18.9999 9.48825 18.9019 9.29325 18.7069C8.90225 18.3159 8.90225 17.6839 9.29325 17.2929C11.6663 14.9199 16.0573 15.9839 16.2432 16.0299C16.7782 16.1639 17.1032 16.7049 16.9702 17.2409C16.8382 17.7769 16.2972 18.1039 15.7603 17.9709C14.7963 17.7339 12.0113 17.4039 10.7083 18.7069C10.5122 18.9019 10.2562 18.9999 10.0002 18.9999Z" fill="#664500"/>
<path d="M13 25C13 25 14 29 18 29C22 29 23 25 23 25C23 25 22 26 18 26C14 26 13 25 13 25Z" fill="#664500"/>
<path d="M18.0002 29.4999C13.6602 29.4999 12.5262 25.1649 12.5152 25.1209C12.4602 24.9029 12.5582 24.6759 12.7532 24.5639C12.9442 24.4579 13.1832 24.4849 13.3442 24.6359C13.3832 24.6699 14.4102 25.4999 18.0002 25.4999C21.6442 25.4999 22.6472 24.6449 22.6572 24.6369C22.8222 24.4909 23.0662 24.4659 23.2542 24.5769C23.4422 24.6899 23.5382 24.9079 23.4852 25.1209C23.4742 25.1649 22.3402 29.4999 18.0002 29.4999ZM13.9492 26.0079C14.5262 27.0719 15.7242 28.4999 18.0002 28.4999C20.2762 28.4999 21.4752 27.0719 22.0512 26.0079C21.2312 26.2659 19.9502 26.4999 18.0002 26.4999C16.0502 26.4999 14.7692 26.2659 13.9492 26.0079Z" fill="#664500"/>
</svg>
