<svg width="24" height="24" viewBox="0 0 24 24" fill="none" xmlns="http://www.w3.org/2000/svg">
<path d="M17.7801 8.99976L16.1801 9.85976H16.0501C15.9033 9.93015 15.7429 9.96769 15.5801 9.96976C15.4299 9.96874 15.2823 9.93097 15.1501 9.85976C15.0398 9.81088 14.941 9.73933 14.8601 9.64976C14.7588 9.52181 14.6881 9.3724 14.6535 9.21294C14.6188 9.05348 14.6211 8.88821 14.6601 8.72976L15.0501 6.72976C15.0555 6.54196 14.9954 6.35813 14.8801 6.20976L13.3601 4.83976C13.1993 4.71842 13.0789 4.55134 13.0147 4.36042C12.9504 4.16949 12.9454 3.96362 13.0001 3.76976C13.0787 3.57114 13.2189 3.40293 13.4001 3.28976L12.1001 1.56976C12.047 1.48504 11.9733 1.4152 11.8859 1.36678C11.7984 1.31837 11.7001 1.29297 11.6001 1.29297C11.5001 1.29297 11.4018 1.31837 11.3144 1.36678C11.2269 1.4152 11.1532 1.48504 11.1001 1.56976L1.2701 14.3698C0.990103 14.7198 1.1401 15.0098 1.6001 15.0098H6.0001V22.4598C6.00141 22.5661 6.02365 22.6712 6.06557 22.769C6.10749 22.8668 6.16825 22.9553 6.2444 23.0296C6.32055 23.1039 6.41058 23.1625 6.50936 23.2019C6.60814 23.2414 6.71373 23.2611 6.8201 23.2598H16.4301C16.5365 23.2611 16.6421 23.2414 16.7408 23.2019C16.8396 23.1625 16.9297 23.1039 17.0058 23.0296C17.082 22.9553 17.1427 22.8668 17.1846 22.769C17.2266 22.6712 17.2488 22.5661 17.2501 22.4598V14.9998H21.6301C22.0801 14.9998 22.2301 14.7098 21.9601 14.3598L17.7801 8.99976Z" fill="#456DBB"/>
<path d="M22.5201 3.7898L20.4601 3.5298C20.2512 3.49304 20.0531 3.41025 19.8801 3.28745C19.7072 3.16465 19.5637 3.00491 19.4601 2.8198L18.5801 0.999805C18.4101 0.649805 18.1401 0.649805 18.0001 0.999805L17.1201 2.8298C17.0165 3.01491 16.8731 3.17465 16.7001 3.29745C16.5271 3.42025 16.329 3.50304 16.1201 3.5398L14.0001 3.7898C13.9407 3.77845 13.8796 3.77845 13.8201 3.7898C13.6101 3.8898 13.5901 4.0898 13.8201 4.2898L15.1201 5.4798L15.3301 5.6798C15.4594 5.81 15.5584 5.96705 15.6201 6.1398C15.7123 6.35735 15.7434 6.5959 15.7101 6.8298L15.3201 8.8298C15.2501 9.1998 15.4701 9.35981 15.8101 9.1798L17.3201 8.3698L17.6301 8.1998C17.823 8.11097 18.0328 8.06497 18.2451 8.06497C18.4574 8.06497 18.6673 8.11097 18.8601 8.1998L20.6801 9.1998C21.0201 9.3798 21.2401 9.19981 21.1701 8.8498L20.7801 6.8498C20.7526 6.64187 20.7725 6.4304 20.8383 6.23124C20.9041 6.03208 21.0141 5.8504 21.1601 5.6998L22.7001 4.3398C23.0001 4.0798 22.9001 3.8298 22.5201 3.7898Z" fill="#456DBB"/>
</svg>
