<svg width="16" height="17" viewBox="0 0 16 17" fill="none" xmlns="http://www.w3.org/2000/svg">
<path d="M8 6H3C1.6 6 0.5 7.1 0.5 8.5V13.5C0.5 14.9 1.6 16 3 16H8C9.4 16 10.5 14.9 10.5 13.5V8.5C10.5 7.1 9.4 6 8 6ZM3.5 8C4.05 8 4.5 8.45 4.5 9C4.5 9.55 4.05 10 3.5 10C2.95 10 2.5 9.55 2.5 9C2.5 8.45 2.95 8 3.5 8ZM3.5 14C2.95 14 2.5 13.55 2.5 13C2.5 12.45 2.95 12 3.5 12C4.05 12 4.5 12.45 4.5 13C4.5 13.55 4.05 14 3.5 14ZM5.5 12C4.95 12 4.5 11.55 4.5 11C4.5 10.45 4.95 10 5.5 10C6.05 10 6.5 10.45 6.5 11C6.5 11.55 6.05 12 5.5 12ZM7.5 14C6.95 14 6.5 13.55 6.5 13C6.5 12.45 6.95 12 7.5 12C8.05 12 8.5 12.45 8.5 13C8.5 13.55 8.05 14 7.5 14ZM7.5 10C6.95 10 6.5 9.55 6.5 9C6.5 8.45 6.95 8 7.5 8C8.05 8 8.5 8.45 8.5 9C8.5 9.55 8.05 10 7.5 10Z" fill="#456DBB"/>
<path d="M13 1H8C6.6 1 5.5 2.1 5.5 3.5V5H8C9.95 5 11.5 6.55 11.5 8.5V11H13C14.4 11 15.5 9.9 15.5 8.5V3.5C15.5 2.1 14.4 1 13 1ZM12.5 5C11.95 5 11.5 4.55 11.5 4C11.5 3.45 11.95 3 12.5 3C13.05 3 13.5 3.45 13.5 4C13.5 4.55 13.05 5 12.5 5Z" fill="#456DBB"/>
</svg>
