<svg width="21" height="21" viewBox="0 0 21 21" fill="none" xmlns="http://www.w3.org/2000/svg">
<path d="M16.531 15.1168L20.8137 19.3995L19.3995 20.8137L15.1168 16.531C13.5769 17.763 11.624 18.5 9.5 18.5C4.532 18.5 0.5 14.468 0.5 9.5C0.5 4.532 4.532 0.5 9.5 0.5C14.468 0.5 18.5 4.532 18.5 9.5C18.5 11.624 17.763 13.5769 16.531 15.1168ZM14.5247 14.3748C15.7475 13.1146 16.5 11.3956 16.5 9.5C16.5 5.6325 13.3675 2.5 9.5 2.5C5.6325 2.5 2.5 5.6325 2.5 9.5C2.5 13.3675 5.6325 16.5 9.5 16.5C11.3956 16.5 13.1146 15.7475 14.3748 14.5247L14.5247 14.3748Z" fill="#456DBB"/>
</svg>
