<svg width="22" height="22" viewBox="0 0 22 22" fill="none" xmlns="http://www.w3.org/2000/svg">
<path d="M1.13225 12.6308C0.950178 11.5349 0.956188 10.434 1.13313 9.3695C2.23434 9.3963 3.22471 8.86798 3.60963 7.93871C3.99454 7.00944 3.66782 5.93557 2.87024 5.17581C3.49783 4.29798 4.27202 3.51528 5.17568 2.86911C5.93548 3.66716 7.00968 3.99416 7.9392 3.60914C8.86872 3.22412 9.3971 2.23332 9.37 1.13176C10.4659 0.949689 11.5668 0.955699 12.6313 1.13265C12.6045 2.23385 13.1329 3.22422 14.0621 3.60914C14.9914 3.99406 16.0653 3.66733 16.825 2.86975C17.7029 3.49734 18.4856 4.27153 19.1317 5.1752C18.3337 5.93499 18.0067 7.00919 18.3917 7.93871C18.7767 8.86823 19.7675 9.3966 20.8691 9.3695C21.0511 10.4654 21.0451 11.5663 20.8682 12.6308C19.767 12.6041 18.7766 13.1324 18.3917 14.0616C18.0068 14.9909 18.3335 16.0648 19.1311 16.8245C18.5035 17.7024 17.7293 18.4851 16.8256 19.1312C16.0658 18.3332 14.9916 18.0062 14.0621 18.3912C13.1326 18.7762 12.6043 19.767 12.6313 20.8686C11.5354 21.0507 10.4345 21.0447 9.37 20.8677C9.3968 19.7665 8.86847 18.7761 7.9392 18.3912C7.00993 18.0063 5.93605 18.333 5.1763 19.1306C4.29847 18.503 3.51577 17.7288 2.8696 16.8252C3.66765 16.0654 3.99465 14.9912 3.60963 14.0616C3.22461 13.1321 2.23381 12.6038 1.13225 12.6308ZM11.0007 14.0002C12.6575 14.0002 14.0007 12.657 14.0007 11.0002C14.0007 9.3433 12.6575 8.00018 11.0007 8.00018C9.3438 8.00018 8.00066 9.3433 8.00066 11.0002C8.00066 12.657 9.3438 14.0002 11.0007 14.0002Z" fill="#456DBB"/>
</svg>
